<svg width="32" height="32" viewBox="0 0 32 32" fill="none" xmlns="http://www.w3.org/2000/svg">
<rect width="32" height="32" rx="4" fill="#05010A"/>
<path opacity="0.99" d="M16.7594 11.0706C16.7472 11.1099 16.7412 11.614 16.7467 12.1905L16.7561 13.239L21.0343 13.2943C20.0388 14.4081 19.5784 14.9182 19.3689 15.146L18.9875 15.5605L19.0223 17.3293C21.0144 17.3835 21.277 17.4083 21.4544 17.4863C21.576 17.5399 21.7573 17.6632 21.8568 17.7604C21.9568 17.8577 22.0624 18.0246 22.0917 18.1308C22.121 18.2375 22.1448 18.3989 22.1448 18.4901C22.1448 18.5813 22.1199 18.7493 22.0895 18.8632C22.0596 18.977 21.964 19.1511 21.8778 19.2501C21.7916 19.349 21.6175 19.4734 21.4909 19.5264C21.3643 19.5795 21.068 19.6497 20.8326 19.6823C20.5258 19.7249 20.2472 19.7249 19.8514 19.6818C19.5474 19.6486 19.1495 19.5751 18.967 19.5182C18.7846 19.4612 18.5359 19.3717 18.4143 19.3197C18.2927 19.2678 18.05 19.1279 17.8754 19.0096C17.7007 18.8908 17.5388 18.7946 17.5161 18.7952C17.4934 18.7957 17.2508 19.2114 16.9772 19.7193C16.7036 20.2268 16.4725 20.6927 16.4637 20.7546C16.4521 20.8375 16.5245 20.9166 16.74 21.057C16.9009 21.1615 17.1817 21.314 17.3641 21.3964C17.5465 21.4782 17.8947 21.6075 18.1379 21.6838C18.3811 21.7601 18.8167 21.8623 19.1052 21.9115C19.4347 21.9673 19.9498 22.0005 20.4871 22C21.0177 22 21.5329 21.9662 21.8413 21.9126C22.1149 21.8645 22.5256 21.7534 22.7533 21.6661C22.9816 21.5788 23.3299 21.4024 23.5272 21.2753C23.7251 21.1476 24.0108 20.9144 24.1628 20.7568C24.3148 20.5993 24.531 20.2981 24.6432 20.088C24.7554 19.878 24.8853 19.5447 24.9323 19.3468C24.9792 19.1489 25.0168 18.7637 25.0157 18.4901C25.0141 18.2098 24.9726 17.8351 24.9195 17.6316C24.8681 17.4332 24.7393 17.1259 24.6327 16.949C24.5265 16.7716 24.3021 16.4991 24.1341 16.3427C23.9661 16.1862 23.6305 15.9546 23.3879 15.8281C23.1452 15.7015 22.7976 15.5583 22.6152 15.5097C22.4327 15.461 22.2769 15.4152 22.2691 15.408C22.2608 15.4008 22.7638 14.8105 23.3868 14.0958L24.5188 12.7968L24.4945 11.0281C17.5316 11.0026 16.7776 11.0137 16.7594 11.0706Z" fill="#F8F0FF"/>
<path opacity="0.99" d="M9.93885 11.9811C9.57735 12.5206 8.93562 13.4658 8.51388 14.081C8.09158 14.6962 7.43658 15.6535 7.0585 16.209C6.68043 16.764 6.28743 17.33 6.18517 17.4671L6 17.7158L6.03261 19.7609H11.6706L11.7259 21.8614H14.4896L14.5172 19.7886C15.6094 19.7875 15.9577 19.7687 15.9958 19.746C16.0478 19.7156 16.061 19.4304 16.0511 18.5725L16.0373 17.4394L14.5172 17.4118L14.4896 15.0074L11.7535 14.9797V17.4118H9.26616C9.4552 17.0907 10.3799 15.6911 11.4423 14.0953C12.5052 12.499 13.383 11.1498 13.3935 11.0967C13.4106 11.0066 13.315 11 12.0044 11H10.5966L9.93885 11.9811Z" fill="#F8F0FF"/>
<path opacity="0.99" d="M5.42372 8.06985C5.25113 8.10514 5.01181 8.16944 4.89191 8.21295C4.77201 8.25647 4.55445 8.36476 4.40844 8.45324C4.26244 8.54171 4.01442 8.7525 3.85777 8.92171C3.70113 9.09093 3.51306 9.3491 3.44006 9.4951C3.36657 9.64111 3.27133 9.88091 3.2283 10.0269C3.16352 10.2479 3.14805 10.6032 3.13886 12.13C3.12822 13.8231 3.11952 13.9894 3.03056 14.2495C2.97738 14.4052 2.857 14.6334 2.7632 14.7571C2.66893 14.8809 2.44073 15.0873 2.25556 15.2155C2.06991 15.3441 1.7663 15.537 1.58016 15.6448C1.39403 15.7521 1.18759 15.8735 1.12087 15.9141L1 15.9876C1.22481 16.1635 1.30072 16.2143 1.31425 16.2133C1.32779 16.2124 1.52311 16.3144 1.74937 16.4396C1.97564 16.5653 2.27442 16.7509 2.41414 16.8525C2.55386 16.954 2.73033 17.1295 2.8072 17.2426C2.88359 17.3558 2.98512 17.5569 3.03298 17.6898C3.10937 17.9011 3.12387 18.1733 3.14998 19.8654C3.17609 21.5619 3.19059 21.8288 3.26698 22.041C3.31532 22.174 3.42314 22.4109 3.50678 22.5675C3.59525 22.7329 3.79154 22.9765 3.97429 23.1477C4.14737 23.3101 4.4302 23.5141 4.6028 23.6017C4.78797 23.695 5.11334 23.7999 5.39955 23.8579C5.66546 23.912 5.95892 23.9497 6.05223 23.9415L6.22145 23.9265C6.23933 22.7653 6.22483 22.406 6.20114 22.3795C6.17793 22.3529 6.0092 22.3181 5.82742 22.3021C5.64274 22.2861 5.41067 22.2296 5.30286 22.1745C5.1965 22.1198 5.07273 22.0352 5.02777 21.9859C4.9828 21.9366 4.90303 21.7983 4.85082 21.6784C4.76282 21.4778 4.75364 21.3153 4.7314 19.5995C4.71109 18.0505 4.69321 17.6894 4.62504 17.4481C4.58008 17.2886 4.4829 17.0381 4.40893 16.8921C4.33544 16.7461 4.17976 16.5092 4.06373 16.3661C3.9477 16.223 3.83263 16.0813 3.80846 16.0519C3.77994 16.0161 3.85294 15.8899 4.02264 15.6835C4.16429 15.5109 4.34994 15.2169 4.43503 15.0308C4.52012 14.8446 4.6173 14.5725 4.65114 14.4264C4.69224 14.249 4.7227 13.5253 4.74252 12.2509L4.77249 10.3412C4.98184 10.0153 5.13219 9.87656 5.2666 9.80065C5.42904 9.70928 5.58859 9.6648 5.8105 9.64933C5.9831 9.63724 6.15279 9.6034 6.18712 9.57342C6.23353 9.53378 6.24949 9.33314 6.24852 8.81825C6.24755 8.31835 6.22966 8.09982 6.18615 8.05583C6.15231 8.02247 6.03773 7.99733 5.93137 8.00023C5.825 8.00313 5.59632 8.03455 5.42372 8.06985Z" fill="#7000FF"/>
<path opacity="0.99" d="M25.3933 8.04966C25.3373 8.09994 25.3252 8.24981 25.3339 8.79178C25.3392 9.16549 25.36 9.49908 25.3798 9.53389C25.3996 9.5687 25.5645 9.61415 25.7535 9.63639C25.9397 9.65815 26.1683 9.70891 26.2612 9.74904C26.354 9.78868 26.4889 9.88441 26.5609 9.96079C26.6325 10.0372 26.7248 10.1813 26.7664 10.2808C26.8287 10.4322 26.8413 10.7252 26.8413 12.0576C26.8413 12.9351 26.864 13.8217 26.8921 14.0277C26.9196 14.2337 26.9767 14.5112 27.0187 14.6441C27.0608 14.7771 27.1691 15.027 27.259 15.2001C27.3494 15.3727 27.5211 15.6178 27.64 15.744L27.8566 15.9737C27.4631 16.4421 27.2789 16.7192 27.1928 16.8922C27.1067 17.0653 27.0009 17.337 26.9574 17.4966C26.8926 17.7339 26.8747 18.1212 26.8573 19.6238C26.8413 21.0491 26.8215 21.5045 26.7678 21.6544C26.7301 21.7607 26.6276 21.9174 26.5406 22.0029C26.4536 22.088 26.2844 22.192 26.1645 22.2336C26.045 22.2751 25.8449 22.3085 25.7206 22.308C25.5674 22.3075 25.4683 22.3341 25.4132 22.3917C25.3426 22.4651 25.3344 22.5667 25.3522 23.1531C25.3634 23.5254 25.3875 23.857 25.4059 23.8904C25.4243 23.9238 25.521 23.9503 25.6206 23.9503C25.7202 23.9499 25.9977 23.9097 26.237 23.8609C26.4763 23.8121 26.792 23.7125 26.938 23.64C27.0845 23.5674 27.3214 23.4176 27.4645 23.3064C27.6081 23.1957 27.8184 22.9742 27.932 22.8147C28.0456 22.6551 28.1858 22.4158 28.2434 22.2829C28.3014 22.1499 28.3792 21.8835 28.4165 21.6906C28.4672 21.4305 28.4851 20.9127 28.4856 19.6842C28.4861 18.3378 28.5001 17.9829 28.56 17.7866C28.6007 17.6537 28.6857 17.4579 28.7491 17.3515C28.8119 17.2452 28.9473 17.0779 29.0493 16.9802C29.1513 16.8821 29.4665 16.6645 29.7499 16.4968C30.0337 16.3285 30.3329 16.153 30.4146 16.1066C30.4968 16.0602 30.5635 16.0056 30.5635 15.9857C30.563 15.9659 30.288 15.7861 29.9519 15.5869C29.6159 15.3872 29.2224 15.1155 29.0769 14.9825C28.9318 14.8496 28.7728 14.6755 28.7239 14.5958C28.6751 14.516 28.6011 14.342 28.5605 14.209C28.4996 14.0113 28.4861 13.6603 28.4856 12.2872C28.4851 10.9688 28.4692 10.5318 28.4116 10.2567C28.371 10.0638 28.2656 9.75387 28.1776 9.56774C28.0896 9.3816 27.8996 9.10023 27.7556 8.94262C27.612 8.78549 27.3635 8.57228 27.2039 8.4693C27.0444 8.36633 26.7398 8.22757 26.5271 8.16134C26.3143 8.09462 25.988 8.02838 25.8019 8.0134C25.5601 7.99454 25.4436 8.00469 25.3933 8.04966Z" fill="#7000FF"/>
</svg>
