<svg width="217" height="59" viewBox="0 0 217 59" fill="none" xmlns="http://www.w3.org/2000/svg">
<path opacity="0.99" d="M185.652 34.7305C184.995 35.4051 184.611 36.1994 184.593 36.9067C184.574 37.6394 184.875 38.3358 185.47 38.9306C186.04 39.5 186.787 39.8374 187.483 39.8374C188.18 39.8374 188.912 39.5037 189.478 38.9306C190.08 38.3176 190.367 37.614 190.367 36.7544C190.367 35.786 190.109 35.2673 189.279 34.5781C188.68 34.0812 187.853 33.6714 187.436 33.6714C187.023 33.6714 186.221 34.1502 185.652 34.7305Z" fill="#F8F0FF"/>
<path opacity="0.99" fill-rule="evenodd" clip-rule="evenodd" d="M208.491 24.2486C209.993 24.2558 211.389 24.4988 212.31 24.9196C213.108 25.2823 214.345 26.2181 215.06 26.9943C215.912 27.9264 216.5 29.0326 216.772 30.2259C217.102 31.6731 217.08 32.4421 216.667 34.0343C216.329 35.3292 215.727 36.4608 214.955 37.2515C214.298 37.9262 213.108 38.7785 212.31 39.1485C211.422 39.5619 210.018 39.8267 208.683 39.834C207.011 39.8449 206.05 39.6164 204.527 38.8438C203.105 38.1257 202.26 37.3821 201.527 36.2106C200.969 35.3111 200.414 34.0053 200.294 33.3089C200.174 32.6125 200.174 31.3467 200.298 30.498C200.435 29.5658 200.99 28.358 201.701 27.444C202.351 26.6098 203.609 25.5507 204.501 25.0864C205.72 24.4481 206.703 24.245 208.491 24.2486ZM205.368 31.4954C205.245 32.6851 205.383 33.4214 205.876 34.2157C206.29 34.8831 206.997 35.409 207.708 35.5758C208.342 35.7245 209.231 35.7028 209.681 35.5251C210.131 35.351 210.769 34.9012 211.099 34.5276C211.429 34.1577 211.734 33.4468 211.774 32.9462C211.814 32.4493 211.828 31.5897 211.806 31.042C211.785 30.4943 211.357 29.6384 210.86 29.1378C210.243 28.5212 209.554 28.2311 208.705 28.2311C207.936 28.2311 207.087 28.5466 206.5 29.0472C205.8 29.642 205.492 30.3094 205.368 31.4954Z" fill="#F8F0FF"/>
<path opacity="0.99" d="M193.087 24.4842C192.92 24.6148 192.811 28.0423 192.844 32.101C192.895 38.296 192.993 39.5038 193.45 39.6561C193.751 39.7577 194.697 39.8375 195.553 39.8375C196.413 39.8375 197.313 39.6344 197.556 39.3841C197.871 39.0613 197.994 36.9612 197.994 32.0393C197.994 26.9615 197.875 25.0283 197.537 24.6873C197.284 24.437 196.246 24.2303 195.234 24.2339C194.219 24.2376 193.254 24.35 193.087 24.4842Z" fill="#F8F0FF"/>
<path opacity="0.99" d="M173.501 24.6405C172.903 24.8218 172.028 25.3405 171.561 25.7866C171.096 26.2328 170.465 27.067 170.16 27.64C169.82 28.2857 169.696 29.1126 169.83 29.8163C169.95 30.4401 170.295 31.3179 170.596 31.7676C170.897 32.2174 171.836 32.8195 172.685 33.1096C173.534 33.4034 175.166 33.8096 176.312 34.0164C178.028 34.3319 178.397 34.5242 178.397 35.1226C178.397 35.7682 178.154 35.848 176.221 35.848C175.024 35.848 173.472 35.605 172.776 35.304C172.079 35.0029 171.343 34.8397 171.143 34.9413C170.944 35.0392 170.53 35.7356 170.226 36.4828C169.921 37.2299 169.732 38.0061 169.805 38.2056C169.881 38.4051 170.987 38.873 172.264 39.2466C173.882 39.7181 175.307 39.8777 176.947 39.7652C178.343 39.6709 179.805 39.3191 180.537 38.9056C181.212 38.5212 182.112 37.745 182.532 37.1828C183 36.5481 183.294 35.6159 183.294 34.7418C183.294 33.6501 183.044 33.0733 182.206 32.2355C181.412 31.4412 180.436 30.9914 178.579 30.5634C177.182 30.2443 175.674 29.8308 175.224 29.6494C174.64 29.4137 174.484 29.1489 174.68 28.7282C174.905 28.2385 175.362 28.1696 177.309 28.3256C178.608 28.4307 180.033 28.6157 180.483 28.7354C181.165 28.9204 181.419 28.7173 182.025 27.5058C182.478 26.5991 182.63 25.8846 182.431 25.6016C182.257 25.3514 181.361 24.9451 180.436 24.6949C179.515 24.4446 177.821 24.256 176.675 24.2742C175.528 24.2887 174.099 24.4555 173.501 24.6405Z" fill="#F8F0FF"/>
<path opacity="0.99" fill-rule="evenodd" clip-rule="evenodd" d="M140.767 24.2702C141.913 24.2556 143.465 24.495 144.212 24.8033C144.96 25.1152 146.026 25.808 146.584 26.3448C147.139 26.8852 147.749 27.8972 147.941 28.5936C148.133 29.29 148.289 32.0248 148.289 34.6689C148.293 37.313 148.169 39.4856 148.021 39.5001C147.872 39.511 147.179 39.598 146.479 39.6923C145.779 39.783 144.843 39.7722 144.394 39.667C143.944 39.5618 143.578 39.2317 143.578 38.9307C143.578 38.4809 143.346 38.5099 142.218 39.1156C141.427 39.54 140.172 39.8411 139.225 39.8411C138.326 39.8374 137.024 39.5509 136.331 39.2027C135.638 38.8545 134.695 37.9949 134.234 37.2985C133.777 36.6021 133.407 35.6192 133.415 35.1223C133.418 34.6217 133.752 33.686 134.147 33.0367C134.546 32.3875 135.402 31.5895 136.052 31.2631C136.701 30.9367 138.58 30.5703 140.226 30.447C142.265 30.2983 143.219 30.0807 143.219 29.7724C143.215 29.5221 142.849 29.0724 142.399 28.7713C141.949 28.4703 141.053 28.2273 140.404 28.2273C139.755 28.2309 138.449 28.4848 137.502 28.7931C136.556 29.1014 135.758 29.3081 135.736 29.2465C135.711 29.1884 135.424 28.6081 135.101 27.9589C134.775 27.3096 134.514 26.5479 134.514 26.265C134.517 25.9821 135.21 25.5034 136.055 25.2023C136.9 24.8976 137.84 24.5712 138.137 24.4733C138.434 24.379 139.621 24.2847 140.767 24.2702ZM138.681 34.6943C138.532 35.2782 138.598 35.8114 138.848 36.029C139.076 36.2285 139.809 36.3917 140.477 36.3917C141.184 36.3917 142.014 36.0907 142.471 35.6663C142.903 35.2674 143.208 34.6145 143.146 34.2155C143.059 33.6606 142.733 33.4792 141.764 33.4393C141.064 33.4139 140.143 33.4647 139.711 33.5554C139.24 33.6569 138.833 34.1067 138.681 34.6943Z" fill="#F8F0FF"/>
<path opacity="0.99" d="M118.051 20.3312C117.964 20.5924 117.92 25.05 117.949 30.2331L118.007 39.6561C129.958 39.8012 131.917 39.7069 132.272 39.3768C132.573 39.0976 132.708 38.325 132.635 37.2986L132.515 35.6664L122.904 35.485L122.722 20.0701C118.841 19.8851 118.163 19.9867 118.051 20.3312Z" fill="#F8F0FF"/>
<path opacity="0.99" fill-rule="evenodd" clip-rule="evenodd" d="M156.454 18.9823L156.635 25.6923L157.814 24.9669C158.576 24.5026 159.635 24.2415 160.806 24.2415C161.974 24.2378 163.2 24.528 164.248 25.0539C165.21 25.54 166.319 26.5156 166.969 27.4478C167.825 28.6882 168.089 29.5043 168.198 31.2562C168.278 32.5329 168.129 34.1107 167.85 34.9413C167.585 35.7392 166.951 36.8672 166.443 37.4512C165.939 38.0351 164.869 38.8077 164.071 39.1668C163.273 39.5259 161.804 39.8269 160.806 39.8305C159.671 39.8378 158.485 39.5694 157.633 39.1124C156.273 38.387 156.273 38.387 156.091 39.1124C155.942 39.7108 155.605 39.8378 154.187 39.845C153.24 39.8487 152.257 39.6419 152.003 39.3916C151.659 39.0435 151.532 36.49 151.492 29.109C151.459 23.7047 151.579 19.1672 151.753 19.0258C151.927 18.8843 153.055 18.819 156.454 18.9823ZM157.212 29.7473C156.893 30.2116 156.632 31.1184 156.632 31.7676C156.635 32.4168 156.798 33.3562 156.998 33.8531C157.197 34.3537 157.85 35.0029 158.449 35.304C159.181 35.6703 159.91 35.761 160.679 35.576C161.31 35.4273 162.13 34.8977 162.507 34.3972C162.932 33.8314 163.186 32.9101 163.175 31.9489C163.168 30.8753 162.917 30.1318 162.348 29.5007C161.898 29.0002 161.042 28.5141 160.444 28.4198C159.845 28.3255 159.004 28.3981 158.576 28.5758C158.148 28.7572 157.535 29.2831 157.212 29.7473Z" fill="#F8F0FF"/>
<path opacity="0.99" d="M193.45 18.1986C193.051 18.467 192.597 19.1634 192.441 19.7438C192.246 20.4764 192.329 21.0422 192.713 21.6117C193.018 22.0614 193.718 22.6019 194.266 22.8122C194.814 23.0226 195.63 23.1024 196.079 22.9936C196.529 22.8812 197.222 22.464 197.621 22.0651C198.02 21.6661 198.346 20.9298 198.346 20.4329C198.346 19.9324 197.936 19.1163 197.44 18.6194C196.845 18.0245 196.127 17.7126 195.354 17.709C194.705 17.709 193.849 17.9266 193.45 18.1986Z" fill="#F8F0FF"/>
<path opacity="0.99" d="M58.2527 11.2118C58.2125 11.3416 58.1924 13.0089 58.2107 14.9157L58.2418 18.3838L72.392 18.5666C69.0994 22.2504 67.5765 23.9378 66.8836 24.6911L65.6222 26.0622L65.7374 31.9124C72.3261 32.0916 73.1945 32.1738 73.7814 32.4316C74.1836 32.6089 74.7832 33.0166 75.1123 33.3384C75.4432 33.6601 75.7924 34.2123 75.8893 34.5633C75.9862 34.9161 76.0648 35.4499 76.0648 35.7516C76.0648 36.0532 75.9825 36.609 75.882 36.9856C75.7832 37.3622 75.467 37.9381 75.1818 38.2654C74.8966 38.5926 74.3207 39.0039 73.902 39.1795C73.4834 39.355 72.5035 39.5871 71.7247 39.695C70.71 39.8358 69.7886 39.8358 68.4796 39.6932C67.4741 39.5835 66.1578 39.3403 65.5545 39.152C64.9512 38.9637 64.1285 38.6676 63.7263 38.4957C63.3241 38.3239 62.5216 37.8613 61.9439 37.4701C61.3662 37.077 60.8305 36.7589 60.7555 36.7608C60.6806 36.7626 59.878 38.1374 58.9731 39.8175C58.0681 41.4958 57.3039 43.0369 57.2747 43.2417C57.2363 43.5159 57.4758 43.7773 58.1888 44.2417C58.7208 44.5872 59.6495 45.0918 60.2528 45.3642C60.8561 45.6348 62.0078 46.0626 62.8122 46.3149C63.6167 46.5672 65.0573 46.9054 66.0116 47.0681C67.1012 47.2527 68.8051 47.3624 70.5821 47.3606C72.3371 47.3606 74.041 47.2491 75.0611 47.0717C75.9661 46.9127 77.3244 46.5452 78.0776 46.2564C78.8327 45.9675 79.9844 45.3843 80.6371 44.9638C81.2916 44.5415 82.2368 43.77 82.7395 43.249C83.2423 42.728 83.9571 41.7316 84.3282 41.0369C84.6993 40.3422 85.1289 39.2398 85.2843 38.5853C85.4397 37.9308 85.5641 36.6565 85.5604 35.7516C85.5549 34.8247 85.4178 33.5852 85.2423 32.9124C85.0723 32.2561 84.6463 31.2396 84.2935 30.6546C83.9425 30.0678 83.2002 29.1665 82.6444 28.6491C82.0887 28.1317 80.979 27.3657 80.1764 26.947C79.3738 26.5284 78.2239 26.0549 77.6206 25.894C77.0173 25.7331 76.5017 25.5814 76.4761 25.5576C76.4487 25.5338 78.1124 23.5813 80.1727 21.2175L83.9169 16.9213L83.8364 11.071C60.8067 10.9869 58.3131 11.0235 58.2527 11.2118Z" fill="#F8F0FF"/>
<path opacity="0.99" d="M35.6949 14.2245C34.4993 16.0088 32.3767 19.135 30.9818 21.1698C29.5851 23.2046 27.4187 26.371 26.1682 28.2083C24.9177 30.0438 23.6179 31.9159 23.2797 32.3693L22.6672 33.192L22.7751 39.9563H41.4226L41.6054 46.9034H50.7464L50.8378 40.0477C54.4503 40.044 55.6021 39.9819 55.7282 39.9069C55.9001 39.8064 55.9439 38.863 55.911 36.0257L55.8653 32.2779L50.8378 32.1865L50.7464 24.2339L41.6969 24.1425V32.1865H33.47C34.0952 31.1243 37.1538 26.4953 40.6676 21.2174C44.1832 15.9375 47.0864 11.4749 47.1211 11.2994C47.1778 11.0014 46.8615 10.9795 42.5269 10.9795H37.8705L35.6949 14.2245Z" fill="#F8F0FF"/>
<path opacity="0.99" d="M16.2035 0.255841C15.5713 0.385115 14.6947 0.620645 14.2555 0.780023C13.8164 0.939402 13.0195 1.33608 12.4847 1.66015C11.9499 1.98422 11.0414 2.75632 10.4676 3.37612C9.89387 3.99593 9.205 4.94157 8.9376 5.47638C8.66843 6.01118 8.31956 6.88953 8.16195 7.42434C7.92466 8.23363 7.86799 9.53522 7.83434 15.1276C7.79539 21.3292 7.76351 21.9384 7.43767 22.8911C7.24287 23.4614 6.80192 24.2972 6.45838 24.7506C6.11306 25.2039 5.2772 25.9601 4.59896 26.4294C3.91894 26.9004 2.80683 27.607 2.12505 28.0019C1.44326 28.395 0.687099 28.8395 0.442718 28.9883L0 29.2574C0.823456 29.902 1.10148 30.088 1.15107 30.0844C1.20065 30.0809 1.91609 30.4545 2.74485 30.9132C3.57362 31.3736 4.66802 32.0536 5.1798 32.4255C5.69159 32.7974 6.33796 33.4402 6.61953 33.8546C6.89932 34.269 7.27121 35.0057 7.44652 35.4927C7.72632 36.2666 7.77945 37.2636 7.87507 43.4616C7.9707 49.6756 8.02383 50.6531 8.30363 51.4305C8.48071 51.9175 8.87562 52.7853 9.18198 53.359C9.50605 53.9647 10.225 54.8572 10.8944 55.4841C11.5284 56.0791 12.5643 56.8264 13.1965 57.1469C13.8748 57.4887 15.0666 57.873 16.1149 58.0855C17.0889 58.2838 18.1638 58.4219 18.5056 58.3918L19.1254 58.3369C19.191 54.0833 19.1378 52.7675 19.0511 52.6702C18.9661 52.5728 18.348 52.4453 17.6822 52.3868C17.0057 52.3284 16.1557 52.1212 15.7608 51.9193C15.3712 51.7192 14.9178 51.4093 14.7531 51.2287C14.5885 51.048 14.2963 50.5416 14.105 50.1024C13.7827 49.3675 13.7491 48.7725 13.6676 42.4876C13.5932 36.8138 13.5277 35.4909 13.278 34.6072C13.1133 34.0229 12.7574 33.1055 12.4864 32.5707C12.2173 32.0359 11.647 31.1682 11.222 30.644C10.797 30.1199 10.3755 29.601 10.287 29.493C10.1825 29.3619 10.4499 28.8997 11.0715 28.1436C11.5904 27.5114 12.2704 26.4347 12.5821 25.7529C12.8937 25.0711 13.2497 24.0741 13.3736 23.5393C13.5242 22.8894 13.6357 20.2384 13.7083 15.5704L13.8181 8.57541C14.5849 7.38184 15.1357 6.8736 15.628 6.59557C16.223 6.26088 16.8074 6.09795 17.6202 6.04129C18.2524 5.99701 18.874 5.87305 18.9997 5.76326C19.1697 5.61805 19.2281 4.88313 19.2246 2.99715C19.2211 1.16607 19.1555 0.365639 18.9962 0.204489C18.8722 0.0822992 18.4525 -0.00979057 18.0629 0.000834671C17.6733 0.0114599 16.8357 0.126567 16.2035 0.255841Z" fill="#7000FF"/>
<path opacity="0.99" d="M89.3495 0.181901C89.144 0.366072 89.0998 0.915044 89.1317 2.90019C89.1511 4.26908 89.2273 5.49098 89.2999 5.61848C89.3725 5.74598 89.9764 5.91245 90.6688 5.99391C91.3506 6.0736 92.1882 6.25954 92.5282 6.40652C92.8682 6.55173 93.3623 6.90237 93.6261 7.18216C93.8882 7.46196 94.2265 7.98968 94.3788 8.35448C94.6072 8.90876 94.6532 9.98191 94.6532 14.8624C94.6532 18.0766 94.7365 21.3244 94.8392 22.0787C94.9401 22.8331 95.1491 23.8496 95.3031 24.3366C95.4572 24.8236 95.8539 25.7391 96.1833 26.3731C96.5144 27.0053 97.1431 27.9032 97.5787 28.3653L98.3721 29.2065C96.9306 30.9225 96.2559 31.9372 95.9407 32.5712C95.6254 33.2051 95.2376 34.2004 95.0783 34.7848C94.841 35.6543 94.7754 37.0727 94.7117 42.5766C94.6532 47.7971 94.5806 49.4653 94.3841 50.0143C94.2459 50.4039 93.8705 50.9776 93.5518 51.2911C93.233 51.6028 92.6132 51.9835 92.174 52.1358C91.7366 52.2881 91.0035 52.4103 90.5484 52.4085C89.987 52.4067 89.624 52.5041 89.4221 52.7149C89.1635 52.984 89.1334 53.3559 89.1989 55.504C89.2397 56.8676 89.3282 58.0824 89.3955 58.2046C89.4628 58.3268 89.817 58.4242 90.1818 58.4242C90.5466 58.4224 91.5631 58.2754 92.4396 58.0965C93.3162 57.9177 94.4726 57.5529 95.0074 57.2873C95.544 57.0216 96.4117 56.4726 96.9359 56.0653C97.4618 55.6598 98.2322 54.8488 98.6483 54.2644C99.0645 53.68 99.578 52.8034 99.7888 52.3164C100.001 51.8294 100.286 50.8537 100.423 50.1471C100.609 49.1944 100.674 47.2978 100.676 42.798C100.678 37.8661 100.729 36.5663 100.949 35.8473C101.097 35.3603 101.409 34.6431 101.641 34.2535C101.871 33.8639 102.367 33.2512 102.741 32.8935C103.114 32.534 104.269 31.7371 105.307 31.1226C106.346 30.5063 107.442 29.8635 107.742 29.6935C108.043 29.5235 108.287 29.3234 108.287 29.2508C108.285 29.1782 107.278 28.5194 106.047 27.7898C104.816 27.0584 103.375 26.0632 102.842 25.5762C102.31 25.0892 101.728 24.4517 101.549 24.1595C101.37 23.8673 101.099 23.2298 100.95 22.7428C100.727 22.0185 100.678 20.7329 100.676 15.7036C100.674 10.8744 100.616 9.27356 100.405 8.26594C100.256 7.55936 99.8702 6.42423 99.5479 5.74244C99.2256 5.06066 98.5297 4.03001 98.002 3.4527C97.476 2.87717 96.5658 2.09621 95.9814 1.71902C95.397 1.34182 94.2814 0.833582 93.5022 0.590973C92.723 0.346592 91.5276 0.103983 90.8459 0.0490859C89.9604 -0.0199781 89.5336 0.0172102 89.3495 0.181901Z" fill="#7000FF"/>
</svg>
